<?xml version="1.0" encoding="utf-8"?>
<!-- Generator: Adobe Illustrator 25.4.1, SVG Export Plug-In . SVG Version: 6.00 Build 0)  -->
<svg version="1.1" id="Capa_1" xmlns="http://www.w3.org/2000/svg" xmlns:xlink="http://www.w3.org/1999/xlink" x="0px" y="0px"
	 viewBox="0 0 700 700" style="enable-background:new 0 0 700 700;" xml:space="preserve">
<style type="text/css">
	.st0{fill:#EDF6F3;}
	.st1{fill:#E4B938;}
	.st2{fill:#1D1D1B;}
</style>
<rect x="199.8" y="266.9" class="st0" width="341" height="243"/>
<g>
	<path class="st1" d="M218.6,381.7c4.8-6.9,11-12.6,17.8-17.4c7.3-5.1,15.2-9.3,23.4-12.8c7.7-3.2,15.6-5.9,23.6-7.9l46.3-34.4
		c0.6-1.2,1.2-2.4,1.7-3.6c2.1-4.5,4.2-9,6.6-13.3c4.7-8.6,10.7-16.1,18.5-22c4.5-3.4,9.4-6.5,14.6-8.8c5.2-2.3,10.6-3.8,16.2-5
		c5.5-1.2,11.2-1.9,16.8-2.6l5.1-3.8l-78.9-106.2l-224.8,167l78.9,106.2l27.1-20.1C213,391.6,215.4,386.4,218.6,381.7z"/>
	<path class="st2" d="M350,69c-74.3,0-145.5,29.5-198,82c-52.5,52.5-82,123.7-82,198s29.5,145.5,82,198c52.5,52.5,123.7,82,198,82
		s145.5-29.5,198-82c52.5-52.5,82-123.7,82-198c0-49.1-12.9-97.4-37.5-140c-24.6-42.6-59.9-77.9-102.5-102.5
		C447.4,81.9,399.1,69,350,69L350,69z M170.9,320.6c-0.1-31.3,13.2-61.1,36.4-82c23.2-20.9,54.2-31,85.3-27.7
		c31.1,3.3,59.3,19.7,77.6,45c-34.2,12.7-61.1,39.9-73.6,74.2c-4-0.8-8.2-1.2-12.3-1.2c-19.6,0-38.5,7-53.4,19.8
		C216,361.3,206.1,379,203,398.3C182.4,377.7,170.9,349.7,170.9,320.6L170.9,320.6z M418.9,487.7H290.6c-25,0-48.1-13.3-60.6-35
		c-12.5-21.6-12.5-48.3,0-70s35.6-35,60.6-35c7.1,0.1,14.1,1.4,20.8,3.9c6.5-27,22.9-50.6,45.9-66c23.1-15.4,51.1-21.6,78.6-17.3
		c27.4,4.3,52.2,18.8,69.4,40.6c17.2,21.8,25.6,49.3,23.4,76.9c-2.1,27.7-14.7,53.5-35,72.4C473.4,477.1,446.6,487.6,418.9,487.7
		L418.9,487.7z"/>
</g>
</svg>
