<?xml version="1.0" encoding="utf-8"?>
<!-- Generator: Adobe Illustrator 25.4.1, SVG Export Plug-In . SVG Version: 6.00 Build 0)  -->
<svg version="1.1" id="Capa_1" xmlns="http://www.w3.org/2000/svg" xmlns:xlink="http://www.w3.org/1999/xlink" x="0px" y="0px"
	 viewBox="0 0 700 700" style="enable-background:new 0 0 700 700;" xml:space="preserve">
<style type="text/css">
	.st0{fill-rule:evenodd;clip-rule:evenodd;}
</style>
<g>
	<path class="st0" d="M111.3,201l175.2-83.9c12.6-7.6,29.2,1.4,29.2,16.6v25.2H446c10.6,0,19.3,8.6,19.3,19.3v80.3
		c0,25.4-38.5,25.4-38.5,0v-61.1h-111v291.2h111v-61.1c0-25.3,38.5-25.3,38.5,0v80.3c0,10.6-8.6,19.3-19.3,19.3H315.6l-0.1,25.2
		c0,13.9-14.6,23.5-27.5,17.3l-175.2-83.9c-7.4-2.7-12.6-9.8-12.6-18.1l0.1-249.4C100.4,211.2,104.4,204.3,111.3,201L111.3,201z
		 M374.1,318.6c-32.1,0-32.1,48.8,0,48.8h142.3L488.8,395c-22.7,22.7,11.8,57.2,34.5,34.5l69.1-69.1c9.3-9.3,10.1-24.7,0-34.8
		l-69.1-69.1c-22.7-22.7-57.2,11.8-34.5,34.5l27.6,27.6L374.1,318.6L374.1,318.6z"/>
</g>
</svg>
